HIERARCHY
ROOT pelvis
{
  OFFSET 0 100 0
  CHANNELS 6 Xposition Yposition Zposition Zrotation Xrotation Yrotation
  JOINT pelvis_right_femur
  {
    OFFSET -10.78128 -3.44521 -0.5502486
    CHANNELS 3 Zrotation Xrotation Yrotation
    JOINT right_femur_tibia
    {
      OFFSET -0.8047443 -44.0398 -0.1307829
      CHANNELS 3 Zrotation Xrotation Yrotation
      JOINT right_tibia_foot
      {
        OFFSET 3.006224 -47.83518 -5
        CHANNELS 3 Zrotation Xrotation Yrotation
        End Site
        {
          OFFSET 0 -5 15
        }
      }
    }
  }
  JOINT pelvis_left_femur
  {
    OFFSET 10.78128 -3.44521 -0.5502486
    CHANNELS 3 Zrotation Xrotation Yrotation
    JOINT left_femur_tibia
    {
      OFFSET 0.8047443 -44.0398 -0.1307829
      CHANNELS 3 Zrotation Xrotation Yrotation
      JOINT left_tibia_foot
      {
        OFFSET -4.370144 -48.10324 -4.275266
        CHANNELS 3 Zrotation Xrotation Yrotation
        End Site
        {
          OFFSET 0 -5 15
        }
      }
    }
  }
  JOINT pelvis_spine1
  {
    OFFSET 0 6.468898 -3.129235
    CHANNELS 3 Zrotation Xrotation Yrotation
    JOINT spine1
    {
      OFFSET 0 23.15396 4.99043
      CHANNELS 3 Zrotation Xrotation Yrotation
      JOINT spine2
      {
        OFFSET 0 20.79997 -5.064912
        CHANNELS 3 Zrotation Xrotation Yrotation
        JOINT neck
        {
          OFFSET 0 14.38658 9.616178
          CHANNELS 3 Zrotation Xrotation Yrotation
          End Site
          {
            OFFSET 0 20 0
          }
        }
      }
      JOINT right_manubrium
      {
        OFFSET -5.722621 16.35077 3.967754
        CHANNELS 3 Zrotation Xrotation Yrotation
        JOINT right_clavicle
        {
          OFFSET -13.16364 1.694482 -4.693211
          CHANNELS 3 Zrotation Xrotation Yrotation
          JOINT right_humerus
          {
            OFFSET -28.5034 -0.3100689 -2.792744
            CHANNELS 3 Zrotation Xrotation Yrotation
            JOINT right_radius
            {
              OFFSET -25.15693 0.02248979 -1.271978
              CHANNELS 3 Zrotation Xrotation Yrotation
              End Site
              {
                OFFSET -15 0 0
              }
            }
          }
        }
      }
      JOINT left_manubrium
      {
        OFFSET 5.722621 16.35077 3.967754
        CHANNELS 3 Zrotation Xrotation Yrotation
        JOINT left_clavicle
        {
          OFFSET 13.16364 1.694482 -4.693211
          CHANNELS 3 Zrotation Xrotation Yrotation
          JOINT left_humerus
          {
            OFFSET 29.39168 -1.063119 -2.237045
            CHANNELS 3 Zrotation Xrotation Yrotation
            JOINT left_radius
            {
              OFFSET 24.59957 -0.9528479 0.9047498
              CHANNELS 3 Zrotation Xrotation Yrotation
              End Site
              {
                OFFSET 15 -0 -0
              }
            }
          }
        }
      }
    }
  }
}
MOTION
Frames: 23
Frame Time: 0.0416666666667
0 103.5113 0 -0.0139834 -0.6387186 -0.07881832 4.622518 -19.35276 8.301095 -0 37.49022 -0 -7.370393 -13.31706 -2.089544 -6.615448 10.67348 -22.30248 -0 6.492179 -0 9.877993 -16.80027 26.26168 -2.804519 -3.623824 4.373859 2.609966 10.00178 -7.501088 1.457399 22.1594 6.626612 2.720206 -25.92497 9.866775 5.201069 -20.6628 11.70643 86.49435 32.56147 -18.84911 -0 0 15.74007 -7.774851 7.687147 4.634963 6.069521 -20.31768 -1.479873 -94.31387 23.87234 22.62576 0 0 -14.34982 12.27258 18.31305 0.1975301
0.3386727 103.2955 1.881669 -0.1402496 -0.4037932 -0.1472272 4.779202 -20.30312 8.001027 -0 36.05378 -0 -7.423208 -12.39685 -1.919769 -6.520432 10.74957 -21.818 -0 6.60995 -0 9.689089 -17.16754 25.84687 -2.740484 -3.495793 4.330104 2.692737 10.10008 -7.607462 1.41365 21.97422 6.729155 2.822059 -26.10644 9.852391 5.136879 -20.60086 11.76029 86.61242 32.46631 -19.0545 -0 0 15.48036 -8.138602 7.832426 4.827365 6.210846 -20.60809 -1.536239 -94.02141 23.42452 22.28849 0 0 -14.75779 12.56015 18.05956 -0.1650592
0.6821114 103.0224 3.925189 -0.1448201 0.7412062 -0.1748895 5.32293 -22.56471 8.691059 -0 32.63353 -0 -6.45605 -12.30804 -2.142361 -6.637743 10.71188 -21.53899 -0 6.821683 -0 10.05044 -17.82723 25.93546 -3.02013 -3.272315 4.618105 3.024644 10.02267 -7.869034 1.491682 21.25941 6.790599 2.944791 -26.51927 9.987407 5.603474 -20.31105 11.73283 86.17528 34.08618 -19.29678 -0 0 15.72149 -7.583715 8.266811 4.695103 6.476798 -20.52459 -1.114738 -93.51153 22.96019 21.81681 0 0 -15.61844 12.64983 16.62935 -0.1914277
1.038309 102.6749 6.161354 -0.2189033 1.880053 -0.1128888 5.940327 -25.04289 9.06731 -0 29.87041 -0 -5.887495 -11.94453 -2.036326 -6.727854 10.65882 -21.09434 -0 6.70432 -0 10.81524 -18.26231 25.91044 -3.201353 -2.97821 4.797428 3.299397 9.949881 -8.066081 1.499752 20.67777 6.936665 3.076308 -26.96739 10.1457 5.961935 -20.02501 11.74951 85.94331 35.66353 -19.45464 -0 0 15.55203 -7.025219 8.592728 4.610232 6.713368 -20.58765 -0.7920722 -92.71416 22.20864 21.02406 0 0 -16.86003 13.55424 15.1987 -1.13202
1.400366 102.2156 8.730111 -0.3251142 3.257138 0.09305112 6.69116 -28.26326 9.318144 -0 26.08178 -0 -5.174052 -11.02756 -1.960051 -6.768176 10.87566 -20.30872 -0 6.523237 -0 11.24383 -19.03189 25.49417 -3.431049 -2.509227 4.877142 3.646407 9.770702 -8.335997 1.458595 19.98534 7.193597 3.30812 -27.39839 10.25756 6.401308 -19.4908 11.75507 85.763 37.61552 -19.77743 -0 0 15.02886 -6.562661 9.053246 4.659076 6.98835 -20.69624 -0.5024452 -91.58639 21.62438 19.79284 0 0 -18.78927 14.02172 13.36123 -1.613201
1.752529 101.5682 11.79148 -0.44933 4.445879 0.480568 7.311369 -31.55707 9.068149 -0 21.74296 -0 -4.482244 -9.422143 -1.941134 -6.709725 11.55134 -19.10596 -0 6.394249 -0 10.90433 -20.01731 24.45372 -3.606441 -1.905854 4.739166 3.956422 9.476618 -8.592012 1.359967 19.40645 7.52057 3.584263 -27.5766 10.24359 6.691534 -18.71199 11.72016 85.86009 39.22205 -20.29635 -0 0 13.95562 -6.541615 9.546993 4.94887 7.25868 -20.88717 -0.4184278 -90.1542 21.36174 18.03039 0 0 -21.3047 13.82797 11.47841 -1.435046
2.070254 100.6683 15.55841 -0.6236068 5.153225 1.054641 7.648704 -34.36839 8.196011 -0 16.85579 -0 -3.789073 -6.951664 -2.1829 -6.45383 12.854 -17.36583 -0 6.977877 -0 8.989451 -21.19645 22.42128 -3.608279 -1.257186 4.328229 4.182949 9.103264 -8.839602 1.23097 18.97292 7.830748 3.860851 -27.35325 10.0087 6.716289 -17.67648 11.61543 86.29373 39.79952 -21.11563 -0 0 12.39848 -7.310247 10.12613 5.529812 7.533814 -21.1858 -0.5897287 -88.59783 21.50375 15.85239 0 0 -23.98535 12.52514 9.840247 -0.1436502
2.336771 99.56796 20.1904 -0.9663749 5.07182 1.765353 7.764426 -35.75784 6.861975 -0 12.64093 -0 -3.422566 -3.962237 -2.70013 -5.875011 14.54773 -15.25105 -0 9.417758 -0 5.085955 -21.98642 19.21439 -3.175308 -0.7692519 3.659148 4.246568 8.791001 -9.054864 1.106323 18.74666 7.988015 4.042961 -26.75852 9.53126 6.366233 -16.59178 11.4763 87.02539 38.60696 -22.13356 -0 0 10.72681 -8.896757 10.742 6.240995 7.729129 -21.59255 -1.00046 -87.42658 21.92064 13.92044 0 0 -25.79989 10.29383 8.992793 2.046334
2.560387 98.56269 25.68147 -1.623948 4.375535 2.515519 8.144259 -35.09023 5.886655 -0 10.95786 -0 -3.775807 -1.588294 -3.293072 -4.893111 15.82642 -13.34283 -0 14.92958 -0 -0.2252174 -21.30426 15.17 -2.123699 -0.5944172 2.897321 4.151389 8.628053 -9.220024 1.004418 18.66306 7.918937 4.066199 -26.14183 8.938656 5.84558 -15.73446 11.38359 87.77221 36.10218 -23.03097 -0 0 9.609905 -10.51051 11.32862 6.692511 7.602348 -21.84608 -1.460616 -87.24497 22.57332 13.3202 0 0 -25.67579 7.679068 9.120768 4.638165
2.779532 98.13006 31.76606 -2.587203 3.636012 3.182069 9.010318 -32.14602 5.91522 -0 13.19843 -0 -5.176448 -1.340824 -3.500462 -3.610434 15.44306 -12.38254 -0 23.94443 -0 -5.103623 -17.98617 11.23899 -0.5538452 -0.691848 2.315248 3.97012 8.553449 -9.25156 0.8703444 18.70883 7.706974 3.925527 -25.98873 8.447229 5.556904 -15.29886 11.42369 88.24271 34.01066 -23.44941 -0 0 9.438992 -10.9581 11.7205 6.614738 6.799471 -21.50446 -1.792016 -88.24802 23.53908 14.80055 0 0 -23.39934 5.476027 9.838055 6.983743
3.046409 98.60461 37.97683 -3.467474 3.373909 3.634458 9.602493 -27.27489 6.276311 -0 17.99645 -0 -7.486013 -3.8376 -2.812871 -2.522006 12.32219 -12.47649 -0 35.24927 -0 -7.381921 -11.98922 8.410808 0.9457062 -0.7974622 2.202574 3.818156 8.438039 -9.019343 0.5643169 19.08169 7.587691 3.721438 -26.50962 8.155846 5.786969 -15.23251 11.67367 88.29506 34.18144 -23.22711 -0 0 9.609492 -9.965278 11.67494 6.368949 5.223117 -20.49853 -2.025319 -89.71099 24.65129 17.6516 0 0 -20.42453 4.522676 10.38512 8.344834
3.358276 99.71825 44.05832 -3.390085 2.900618 3.627461 8.811152 -21.46148 5.463476 -0 19.86137 -0 -8.971094 -6.726963 -1.651002 -2.279045 7.195767 -12.10447 -0 46.06183 -0 -6.946348 -5.994506 7.375491 1.344591 -0.6344056 2.772681 3.723969 8.565062 -8.55186 0.1327689 19.9623 7.595966 3.609858 -26.69198 7.752638 6.25895 -15.21108 12.11839 88.06781 35.83391 -22.63987 -0 0 8.72769 -9.904194 11.46294 7.043094 3.682603 -19.85321 -2.490455 -89.78568 25.03541 18.87433 0 0 -19.60151 4.700573 10.02182 8.664292
3.667542 100.908 50.17045 -2.16733 0.9758333 3.019984 7.40144 -15.76759 4.476141 -0 16.45328 -0 -7.481086 -6.625226 -1.544811 -2.536051 2.113676 -9.809598 -0 54.96143 -0 -6.315857 -3.326697 8.562188 0.5100433 -0.3287848 4.114469 3.516704 9.725694 -8.177416 0.01214354 20.6102 7.325186 3.633327 -25.25119 6.919473 6.58292 -15.38405 12.68423 87.56264 35.85168 -22.03341 -0 0 7.730486 -12.90948 12.06435 8.77811 3.185744 -20.49249 -3.235964 -88.32357 23.65536 17.58569 0 0 -21.27747 4.487624 8.542882 9.198308
3.993222 102.1261 56.1898 -0.9243557 -0.5781506 2.234405 6.499764 -10.76507 4.401175 -0 12.18358 -0 -5.501888 -5.873406 -1.682446 -2.623733 -3.868343 -7.378432 -0 61.01385 -0 -5.806425 -3.058604 10.22774 -0.5423077 -0.06627987 5.814502 3.22308 11.13192 -7.854921 0.06060363 20.62266 6.979375 3.783686 -23.81731 6.150303 7.013423 -16.11082 13.27915 86.34418 35.61689 -20.90237 -0 0 8.487475 -15.80931 12.98307 10.29451 3.229143 -21.34692 -3.528989 -87.83035 21.88876 17.52529 0 0 -22.57105 4.017931 7.156894 9.751371
4.327807 103.1376 61.87468 0.04620651 -1.227705 1.553846 5.732094 -5.57879 4.249285 -0 8.92132 -0 -4.984531 -6.888066 -1.259141 -2.269066 -11.0717 -5.823159 -0 61.65449 -0 -4.989494 -3.651281 11.6822 -1.455268 0.2816117 7.187365 2.782342 11.65579 -7.183663 0.1130695 20.82095 6.67845 3.818998 -22.88065 5.705688 7.080428 -17.06629 13.56009 84.44603 35.89458 -18.47179 -0 0 10.42444 -17.17355 13.24363 11.23277 3.388771 -21.47857 -3.245022 -88.46536 21.31707 18.81716 0 0 -22.37014 3.667576 6.766903 9.962762
4.667646 103.5405 67.2503 0.6857899 -1.824033 1.033316 5.113542 -0.1760237 4.049914 -0 6.769147 -0 -4.729344 -8.841688 -0.8894754 -1.182911 -17.89235 -4.486382 -0 56.07465 -0 -4.488486 -4.546885 13.33386 -1.971573 0.722711 7.970087 2.150371 11.54779 -6.252041 0.2193017 21.18571 6.353332 3.654102 -21.87564 5.45462 6.490852 -18.21764 13.5248 82.28165 35.38745 -14.99916 -0 0 13.1912 -18.31499 12.99143 12.16031 3.705171 -20.9331 -2.839707 -89.47999 21.45465 20.37106 0 0 -21.17093 3.00524 6.736851 10.49073
5.038346 103.1604 72.46612 0.8553638 -2.443412 0.6091482 4.766929 4.902628 3.875551 -0 5.59178 -0 -4.331959 -11.1808 -0.6309102 0.5208481 -23.41293 -3.119631 -0 46.0284 -0 -4.305101 -5.286498 15.12551 -1.961586 1.133418 8.20038 1.45468 11.12934 -5.317204 0.3378445 21.52504 6.080414 3.361849 -20.87162 5.365888 5.380479 -19.53179 13.2687 80.35142 34.00665 -11.23338 -0 0 16.35777 -19.6542 12.41448 13.23834 4.10224 -20.00556 -2.519101 -90.52339 21.71602 21.85816 0 0 -19.43264 2.240123 6.748182 11.20935
5.466082 102.0306 77.73712 0.6083415 -3.081572 0.1576961 4.623515 9.378891 3.672128 -0 5.363798 -0 -3.808772 -13.63816 -0.423217 2.329431 -27.11346 -1.920178 -0 34.32243 -0 -4.314206 -5.743186 16.92464 -1.547756 1.380203 8.042776 0.8009634 10.54328 -4.517961 0.4961716 21.82875 5.85952 2.997897 -19.93226 5.448377 3.918872 -20.79465 12.79462 79.05373 31.96293 -7.832137 -0 0 19.3723 -21.08067 11.59323 14.25859 4.484747 -18.92069 -2.307876 -91.42684 21.92396 23.0283 0 0 -17.33974 1.607632 6.84623 11.83088
5.970778 100.3941 83.28118 0.1847534 -3.57116 -0.4084018 4.473768 13.01792 3.407065 -0 6.072472 -0 -3.176778 -15.71115 -0.154118 3.559536 -28.9762 -1.243257 -0 24.04843 -0 -4.389843 -5.981246 18.37607 -1.049758 1.337038 7.789199 0.2834384 9.926078 -3.944616 0.6897117 22.04761 5.691141 2.656781 -19.19507 5.64759 2.488426 -21.76069 12.19461 78.43825 29.82557 -5.313771 -0 0 21.75249 -22.36986 10.7287 15.02413 4.745146 -17.89546 -2.16687 -92.10654 22.05142 23.85509 0 0 -15.19406 1.158215 7.026646 12.27073
6.567267 98.59694 89.24805 -0.1125872 -3.847679 -1.073607 4.078221 15.83018 3.104645 -0 7.939945 -0 -2.482537 -16.78471 0.1761184 3.713542 -29.30959 -1.374842 -0 17.19985 -0 -4.458 -6.179852 19.24653 -0.8052718 0.9867844 7.664188 -0.07379104 9.36685 -3.571915 0.9243847 22.1809 5.546274 2.404453 -18.72821 5.895976 1.407261 -22.26606 11.57779 78.34153 28.03802 -3.834315 -0 0 23.23709 -23.32843 9.990395 15.43476 4.819621 -17.01044 -2.04502 -92.61644 22.19419 24.46638 0 0 -13.11386 0.7780772 7.260469 12.63338
7.269545 96.98141 95.69416 -0.07416701 -3.994277 -1.733301 3.297355 17.89071 2.8815 -0 11.38452 -0 -1.753843 -16.25039 0.436933 2.733267 -28.48374 -2.291593 -0 14.22688 -0 -4.471402 -6.48898 19.527 -0.9979135 0.4137868 7.740681 -0.3129037 8.968066 -3.32751 1.196862 22.2298 5.407757 2.279288 -18.5145 6.132721 0.8436064 -22.3047 11.05576 78.59079 26.78648 -3.30275 -0 0 23.82187 -23.93944 9.485559 15.54665 4.70187 -16.27637 -1.945447 -93.02419 22.39412 25.01093 0 0 -11.15722 0.3364216 7.440128 13.08234
8.081068 95.8235 102.5815 0.335649 -4.174232 -2.24136 2.161328 19.14951 2.864841 -0 16.80534 -0 -1.069716 -13.77107 0.4445085 0.9251525 -26.74456 -3.726805 -0 14.44887 -0 -4.359191 -6.959016 19.39253 -1.609468 -0.2443305 7.937715 -0.5007936 8.835367 -3.159269 1.483235 22.20718 5.290001 2.292021 -18.48903 6.324937 0.8001504 -21.98154 10.71041 79.1176 26.07364 -3.536288 -0 0 23.62283 -24.28903 9.241706 15.4792 4.429726 -15.7121 -1.923882 -93.32897 22.60809 25.52819 0 0 -9.417666 -0.1641246 7.476108 13.65624
8.982107 95.29819 109.779 0.9897699 -4.561893 -2.453298 0.8734056 19.39106 3.086271 -0 24.30038 -0 -0.5445357 -9.5128 0.05620048 -1.230591 -24.18611 -5.334768 -0 16.6085 -0 -4.063874 -7.578672 19.1011 -2.455891 -0.8274306 8.074363 -0.6936722 9.023191 -3.053594 1.747511 22.16367 5.224689 2.415947 -18.55385 6.475219 1.130953 -21.43516 10.56941 79.95885 25.74982 -4.346845 -0 0 22.78393 -24.46692 9.207981 15.31363 4.077776 -15.35786 -2.054312 -93.46674 22.76846 25.89836 0 0 -8.021365 -0.5888843 7.388364 14.23023
